<svg xmlns="http://www.w3.org/2000/svg" xmlns:xlink="http://www.w3.org/1999/xlink" width="40" zoomAndPan="magnify" viewBox="0 0 30 30.000001" height="40" preserveAspectRatio="xMidYMid meet" version="1.0"><defs><g/><clipPath id="a6901cb9cf"><path d="M 0.484375 0 L 29.515625 0 L 29.515625 29.03125 L 0.484375 29.03125 Z M 0.484375 0 " clip-rule="nonzero"/></clipPath><clipPath id="ff6460d555"><path d="M 0.484375 3 L 29.515625 3 L 29.515625 28 L 0.484375 28 Z M 0.484375 3 " clip-rule="nonzero"/></clipPath><clipPath id="4a0feb3a76"><rect x="0" width="30" y="0" height="25"/></clipPath></defs><g clip-path="url(#a6901cb9cf)"><path fill="#ffffff" d="M 0.484375 0 L 29.515625 0 L 29.515625 29.03125 L 0.484375 29.03125 Z M 0.484375 0 " fill-opacity="1" fill-rule="nonzero"/><path fill="#ffffff" d="M 0.484375 0 L 29.515625 0 L 29.515625 29.03125 L 0.484375 29.03125 Z M 0.484375 0 " fill-opacity="1" fill-rule="nonzero"/></g><g clip-path="url(#ff6460d555)"><g transform="matrix(1, 0, 0, 1, 0.000000000000000056, 3)"><g clip-path="url(#4a0feb3a76)"><g fill="#a42828" fill-opacity="1"><g transform="translate(0.410479, 19.144208)"><g><path d="M 6.40625 0.21875 C 5.226562 0.21875 4.164062 0.0429688 3.21875 -0.296875 C 2.269531 -0.640625 1.535156 -1 1.015625 -1.375 L 0.90625 -4.5 L 1.140625 -4.546875 C 1.441406 -3.765625 1.835938 -3.039062 2.328125 -2.375 C 2.816406 -1.707031 3.4375 -1.175781 4.1875 -0.78125 C 4.9375 -0.382812 5.828125 -0.1875 6.859375 -0.1875 C 7.460938 -0.1875 8.019531 -0.304688 8.53125 -0.546875 C 9.039062 -0.796875 9.445312 -1.144531 9.75 -1.59375 C 10.0625 -2.039062 10.21875 -2.566406 10.21875 -3.171875 C 10.21875 -3.742188 10.066406 -4.238281 9.765625 -4.65625 C 9.460938 -5.070312 9.070312 -5.4375 8.59375 -5.75 C 8.113281 -6.070312 7.609375 -6.347656 7.078125 -6.578125 C 6.546875 -6.816406 6.039062 -7.03125 5.5625 -7.21875 C 4.675781 -7.582031 3.90625 -7.945312 3.25 -8.3125 C 2.59375 -8.675781 2.085938 -9.117188 1.734375 -9.640625 C 1.390625 -10.160156 1.21875 -10.816406 1.21875 -11.609375 C 1.21875 -12.492188 1.445312 -13.253906 1.90625 -13.890625 C 2.363281 -14.523438 3.003906 -15.019531 3.828125 -15.375 C 4.648438 -15.726562 5.609375 -15.90625 6.703125 -15.90625 C 7.722656 -15.90625 8.597656 -15.789062 9.328125 -15.5625 C 10.066406 -15.34375 10.65625 -15.113281 11.09375 -14.875 L 11.1875 -12.265625 L 10.953125 -12.1875 C 10.535156 -13.164062 9.925781 -13.96875 9.125 -14.59375 C 8.320312 -15.226562 7.273438 -15.546875 5.984375 -15.546875 C 5.378906 -15.546875 4.816406 -15.425781 4.296875 -15.1875 C 3.785156 -14.957031 3.375 -14.625 3.0625 -14.1875 C 2.757812 -13.757812 2.609375 -13.222656 2.609375 -12.578125 C 2.609375 -12.054688 2.734375 -11.597656 2.984375 -11.203125 C 3.242188 -10.816406 3.582031 -10.476562 4 -10.1875 C 4.425781 -9.90625 4.882812 -9.65625 5.375 -9.4375 C 5.875 -9.21875 6.363281 -9.007812 6.84375 -8.8125 C 7.675781 -8.488281 8.460938 -8.140625 9.203125 -7.765625 C 9.941406 -7.390625 10.535156 -6.929688 10.984375 -6.390625 C 11.441406 -5.847656 11.671875 -5.148438 11.671875 -4.296875 C 11.671875 -3.367188 11.414062 -2.5625 10.90625 -1.875 C 10.394531 -1.195312 9.738281 -0.675781 8.9375 -0.3125 C 8.132812 0.0390625 7.289062 0.21875 6.40625 0.21875 Z M 6.40625 0.21875 "/></g></g></g><g fill="#a42828" fill-opacity="1"><g transform="translate(12.808871, 19.144208)"><g><path d="M 9.453125 0.21875 C 7.785156 0.21875 6.328125 -0.109375 5.078125 -0.765625 C 3.835938 -1.421875 2.875 -2.34375 2.1875 -3.53125 C 1.507812 -4.726562 1.171875 -6.140625 1.171875 -7.765625 C 1.171875 -8.890625 1.367188 -9.945312 1.765625 -10.9375 C 2.160156 -11.925781 2.722656 -12.789062 3.453125 -13.53125 C 4.179688 -14.269531 5.046875 -14.847656 6.046875 -15.265625 C 7.054688 -15.691406 8.160156 -15.90625 9.359375 -15.90625 C 10.035156 -15.90625 10.695312 -15.847656 11.34375 -15.734375 C 12 -15.617188 12.597656 -15.472656 13.140625 -15.296875 C 13.679688 -15.117188 14.09375 -14.929688 14.375 -14.734375 L 14.46875 -12.078125 L 14.25 -12.03125 C 13.976562 -12.675781 13.570312 -13.257812 13.03125 -13.78125 C 12.488281 -14.3125 11.851562 -14.726562 11.125 -15.03125 C 10.394531 -15.34375 9.585938 -15.5 8.703125 -15.5 C 7.628906 -15.5 6.660156 -15.253906 5.796875 -14.765625 C 4.941406 -14.285156 4.265625 -13.570312 3.765625 -12.625 C 3.265625 -11.675781 3.007812 -10.515625 3 -9.140625 C 2.976562 -8.066406 3.125 -7.003906 3.4375 -5.953125 C 3.757812 -4.910156 4.226562 -3.953125 4.84375 -3.078125 C 5.46875 -2.210938 6.222656 -1.519531 7.109375 -1 C 7.992188 -0.476562 9.003906 -0.21875 10.140625 -0.21875 C 10.984375 -0.21875 11.742188 -0.414062 12.421875 -0.8125 C 13.097656 -1.21875 13.578125 -1.695312 13.859375 -2.25 L 13.84375 -4.546875 C 13.84375 -5.253906 13.769531 -5.765625 13.625 -6.078125 C 13.476562 -6.390625 13.164062 -6.609375 12.6875 -6.734375 L 12.6875 -7 L 15.640625 -7 L 15.640625 -2.765625 C 15.203125 -2.171875 14.640625 -1.644531 13.953125 -1.1875 C 13.273438 -0.738281 12.546875 -0.390625 11.765625 -0.140625 C 10.984375 0.0976562 10.210938 0.21875 9.453125 0.21875 Z M 9.453125 0.21875 "/></g></g></g></g></g></g></svg>